<?xml version="1.0" encoding="UTF-8"?>
<svg width="700pt" height="700pt" version="1.1" viewBox="0 0 700 700" xmlns="http://www.w3.org/2000/svg" xmlns:xlink="http://www.w3.org/1999/xlink">
 <defs>
  <symbol id="u" overflow="visible">
   <path d="m17.062-1.0156c-0.875 0.46094-1.793 0.80469-2.75 1.0312-0.94922 0.22656-1.9453 0.34375-2.9844 0.34375-3.0938 0-5.5469-0.86328-7.3594-2.5938-1.8047-1.7266-2.7031-4.0703-2.7031-7.0312 0-2.9688 0.89844-5.3164 2.7031-7.0469 1.8125-1.7266 4.2656-2.5938 7.3594-2.5938 1.0391 0 2.0352 0.12109 2.9844 0.35938 0.95703 0.23047 1.875 0.57422 2.75 1.0312v3.8438c-0.88672-0.61328-1.7617-1.0625-2.625-1.3438-0.86719-0.28125-1.7734-0.42188-2.7188-0.42188-1.7109 0-3.0547 0.54688-4.0312 1.6406-0.98047 1.0938-1.4688 2.6055-1.4688 4.5312 0 1.918 0.48828 3.4219 1.4688 4.5156 0.97656 1.0938 2.3203 1.6406 4.0312 1.6406 0.94531 0 1.8516-0.14062 2.7188-0.42188 0.86328-0.28125 1.7383-0.72266 2.625-1.3281z"/>
  </symbol>
  <symbol id="e" overflow="visible">
   <path d="m12.484-10.141c-0.38672-0.17578-0.77344-0.30469-1.1562-0.39062-0.38672-0.09375-0.77734-0.14062-1.1719-0.14062-1.1484 0-2.0273 0.37109-2.6406 1.1094-0.61719 0.73047-0.92188 1.7773-0.92188 3.1406v6.4219h-4.4531v-13.922h4.4531v2.2812c0.57031-0.91406 1.2266-1.582 1.9688-2 0.73828-0.41406 1.6289-0.625 2.6719-0.625 0.14453 0 0.30078 0.007813 0.46875 0.015625 0.17578 0.011719 0.42969 0.039062 0.76562 0.078125z"/>
  </symbol>
  <symbol id="b" overflow="visible">
   <path d="m16.047-7v1.2656h-10.406c0.10156 1.043 0.47656 1.8281 1.125 2.3594 0.64453 0.52344 1.5469 0.78125 2.7031 0.78125 0.9375 0 1.8945-0.14062 2.875-0.42188 0.98828-0.28125 2.0039-0.70312 3.0469-1.2656v3.4375c-1.0625 0.39844-2.1211 0.69531-3.1719 0.89062-1.0547 0.20703-2.1055 0.3125-3.1562 0.3125-2.5234 0-4.4805-0.64062-5.875-1.9219-1.3984-1.2812-2.0938-3.0781-2.0938-5.3906 0-2.2695 0.67969-4.0547 2.0469-5.3594 1.375-1.3008 3.2656-1.9531 5.6719-1.9531 2.1875 0 3.9375 0.66406 5.25 1.9844 1.3203 1.3125 1.9844 3.0742 1.9844 5.2812zm-4.5781-1.4844c0-0.84375-0.25-1.5195-0.75-2.0312-0.49219-0.51953-1.1328-0.78125-1.9219-0.78125-0.86719 0-1.5703 0.24609-2.1094 0.73438-0.54297 0.48047-0.875 1.1719-1 2.0781z"/>
  </symbol>
  <symbol id="d" overflow="visible">
   <path d="m8.375-6.2656c-0.92969 0-1.625 0.15625-2.0938 0.46875s-0.70312 0.77734-0.70312 1.3906c0 0.5625 0.1875 1.0078 0.5625 1.3281 0.38281 0.32422 0.91016 0.48438 1.5781 0.48438 0.84375 0 1.5469-0.30078 2.1094-0.90625 0.57031-0.60156 0.85938-1.3594 0.85938-2.2656v-0.5zm6.8125-1.6875v7.9531h-4.5v-2.0625c-0.59375 0.84375-1.2656 1.4609-2.0156 1.8438-0.74219 0.38281-1.6484 0.57812-2.7188 0.57812-1.4375 0-2.6094-0.41406-3.5156-1.25-0.89844-0.84375-1.3438-1.9375-1.3438-3.2812 0-1.6328 0.5625-2.832 1.6875-3.5938 1.125-0.76953 2.8906-1.1562 5.2969-1.1562h2.6094v-0.34375c0-0.70703-0.27734-1.2227-0.82812-1.5469-0.55469-0.32031-1.418-0.48438-2.5938-0.48438-0.96094 0-1.8516 0.09375-2.6719 0.28125-0.8125 0.1875-1.5742 0.47656-2.2812 0.85938v-3.4062c0.95703-0.22656 1.9141-0.39844 2.875-0.51562 0.95703-0.125 1.9219-0.1875 2.8906-0.1875 2.5078 0 4.3203 0.49609 5.4375 1.4844 1.1133 0.99219 1.6719 2.6016 1.6719 4.8281z"/>
  </symbol>
  <symbol id="c" overflow="visible">
   <path d="m7-17.891v3.9688h4.5938v3.1719h-4.5938v5.9062c0 0.64844 0.125 1.0859 0.375 1.3125 0.25781 0.23047 0.77344 0.34375 1.5469 0.34375h2.2812v3.1875h-3.8125c-1.7617 0-3.0117-0.36328-3.75-1.0938-0.73047-0.73828-1.0938-1.9883-1.0938-3.75v-5.9062h-2.2188v-3.1719h2.2188v-3.9688z"/>
  </symbol>
  <symbol id="k" overflow="visible">
   <path d="m11.609-11.891v-7.4531h4.4844v19.344h-4.4844v-2.0156c-0.61719 0.82422-1.293 1.4297-2.0312 1.8125-0.73047 0.375-1.5781 0.5625-2.5469 0.5625-1.7188 0-3.1328-0.67969-4.2344-2.0469-1.1055-1.3633-1.6562-3.1172-1.6562-5.2656 0-2.1445 0.55078-3.8984 1.6562-5.2656 1.1016-1.3633 2.5156-2.0469 4.2344-2.0469 0.95703 0 1.8047 0.19531 2.5469 0.57812 0.73828 0.38672 1.4141 0.98438 2.0312 1.7969zm-2.9219 9.0156c0.94531 0 1.6719-0.34766 2.1719-1.0469 0.5-0.69531 0.75-1.707 0.75-3.0312 0-1.3203-0.25-2.332-0.75-3.0312-0.5-0.69531-1.2266-1.0469-2.1719-1.0469-0.94922 0-1.6719 0.35156-2.1719 1.0469-0.5 0.69922-0.75 1.7109-0.75 3.0312 0 1.3242 0.25 2.3359 0.75 3.0312 0.5 0.69922 1.2227 1.0469 2.1719 1.0469z"/>
  </symbol>
  <symbol id="j" overflow="visible">
   <path d="m9.5469-2.875c0.95703 0 1.6875-0.34766 2.1875-1.0469 0.5-0.69531 0.75-1.707 0.75-3.0312 0-1.3203-0.25-2.332-0.75-3.0312-0.5-0.69531-1.2305-1.0469-2.1875-1.0469-0.94922 0-1.6797 0.35547-2.1875 1.0625-0.51172 0.69922-0.76562 1.7031-0.76562 3.0156 0 1.3242 0.25391 2.3359 0.76562 3.0312 0.50781 0.69922 1.2383 1.0469 2.1875 1.0469zm-2.9531-9.0156c0.61328-0.8125 1.2891-1.4102 2.0312-1.7969 0.75-0.38281 1.6094-0.57812 2.5781-0.57812 1.7188 0 3.1289 0.68359 4.2344 2.0469 1.1016 1.3672 1.6562 3.1211 1.6562 5.2656 0 2.1484-0.55469 3.9023-1.6562 5.2656-1.1055 1.3672-2.5156 2.0469-4.2344 2.0469-0.96875 0-1.8281-0.19531-2.5781-0.57812-0.74219-0.38281-1.418-0.98438-2.0312-1.7969v2.0156h-4.4531v-19.344h4.4531z"/>
  </symbol>
  <symbol id="g" overflow="visible">
   <path d="m0.3125-13.922h4.4531l3.7344 9.4375 3.1875-9.4375h4.4531l-5.8594 15.234c-0.58594 1.5508-1.2734 2.6328-2.0625 3.25-0.78125 0.625-1.8125 0.9375-3.0938 0.9375h-2.5781v-2.9219h1.3906c0.75781 0 1.3125-0.12109 1.6562-0.35938 0.34375-0.24219 0.60938-0.67188 0.79688-1.2969l0.125-0.39062z"/>
  </symbol>
  <symbol id="i" overflow="visible">
   <path d="m19.031-1.375c-1.1992 0.57422-2.4453 1.0078-3.7344 1.2969-1.2812 0.28906-2.6055 0.4375-3.9688 0.4375-3.0938 0-5.5469-0.86328-7.3594-2.5938-1.8047-1.7266-2.7031-4.0703-2.7031-7.0312 0-2.9883 0.92188-5.3438 2.7656-7.0625s4.3633-2.5781 7.5625-2.5781c1.2266 0 2.4102 0.12109 3.5469 0.35938 1.1328 0.23047 2.2031 0.57422 3.2031 1.0312v3.8438c-1.043-0.59375-2.0742-1.0352-3.0938-1.3281-1.0234-0.28906-2.0469-0.4375-3.0781-0.4375-1.9062 0-3.375 0.53906-4.4062 1.6094-1.0312 1.0625-1.5469 2.5859-1.5469 4.5625 0 1.9688 0.49219 3.4922 1.4844 4.5625 1 1.0625 2.4141 1.5938 4.25 1.5938 0.5 0 0.96094-0.03125 1.3906-0.09375 0.42578-0.0625 0.80469-0.16016 1.1406-0.29688v-3.5938h-2.9219v-3.2188h7.4688z"/>
  </symbol>
  <symbol id="f" overflow="visible">
   <path d="m16.141-8.4844v8.4844h-4.4688v-6.4844c0-1.207-0.03125-2.0352-0.09375-2.4844-0.054687-0.45703-0.14844-0.79688-0.28125-1.0156-0.16797-0.28906-0.40234-0.51562-0.70312-0.67188-0.30469-0.16406-0.64062-0.25-1.0156-0.25-0.92969 0-1.6562 0.35938-2.1875 1.0781s-0.79688 1.7109-0.79688 2.9688v6.8594h-4.4531v-13.922h4.4531v2.0312c0.66406-0.8125 1.375-1.4102 2.125-1.7969 0.75781-0.38281 1.5977-0.57812 2.5156-0.57812 1.6016 0 2.8203 0.49609 3.6562 1.4844 0.83203 0.99219 1.25 2.4219 1.25 4.2969z"/>
  </symbol>
  <symbol id="t" overflow="visible">
   <path d="m2.3438-18.562h4.7812v6.7656l6.9062-6.7656h5.5625l-8.9531 8.7812 9.8594 9.7812h-5.9844l-7.3906-7.3125v7.3125h-4.7812z"/>
  </symbol>
  <symbol id="h" overflow="visible">
   <path d="m16.141-8.4844v8.4844h-4.4688v-6.4688c0-1.2188-0.03125-2.0508-0.09375-2.5-0.054687-0.45703-0.14844-0.79688-0.28125-1.0156-0.16797-0.28906-0.40234-0.51562-0.70312-0.67188-0.30469-0.16406-0.64062-0.25-1.0156-0.25-0.92969 0-1.6562 0.35938-2.1875 1.0781s-0.79688 1.7109-0.79688 2.9688v6.8594h-4.4531v-19.344h4.4531v7.4531c0.66406-0.8125 1.375-1.4102 2.125-1.7969 0.75781-0.38281 1.5977-0.57812 2.5156-0.57812 1.6016 0 2.8203 0.49609 3.6562 1.4844 0.83203 0.99219 1.25 2.4219 1.25 4.2969z"/>
  </symbol>
  <symbol id="a" overflow="visible">
   <path d="m8.7656-11.078c-0.99219 0-1.7461 0.35547-2.2656 1.0625-0.51172 0.71094-0.76562 1.7305-0.76562 3.0625 0 1.3359 0.25391 2.3555 0.76562 3.0625 0.51953 0.71094 1.2734 1.0625 2.2656 1.0625 0.96875 0 1.707-0.35156 2.2188-1.0625 0.51953-0.70703 0.78125-1.7266 0.78125-3.0625 0-1.332-0.26172-2.3516-0.78125-3.0625-0.51172-0.70703-1.25-1.0625-2.2188-1.0625zm0-3.1875c2.3945 0 4.2656 0.64844 5.6094 1.9375 1.3516 1.293 2.0312 3.0859 2.0312 5.375 0 2.293-0.67969 4.0859-2.0312 5.375-1.3438 1.293-3.2148 1.9375-5.6094 1.9375-2.4062 0-4.2891-0.64453-5.6406-1.9375-1.3555-1.2891-2.0312-3.082-2.0312-5.375 0-2.2891 0.67578-4.082 2.0312-5.375 1.3516-1.2891 3.2344-1.9375 5.6406-1.9375z"/>
  </symbol>
  <symbol id="s" overflow="visible">
   <path d="m2.3438-18.562h4.7812v14.938h8.4062v3.625h-13.188z"/>
  </symbol>
  <symbol id="r" overflow="visible">
   <path d="m11.297-19.344v2.9219h-2.4531c-0.63672 0-1.0781 0.11719-1.3281 0.34375-0.24219 0.21875-0.35938 0.61719-0.35938 1.1875v0.96875h3.7969v3.1719h-3.7969v10.75h-4.4531v-10.75h-2.2188v-3.1719h2.2188v-0.96875c0-1.5195 0.42188-2.6406 1.2656-3.3594 0.84375-0.72656 2.1484-1.0938 3.9219-1.0938z"/>
  </symbol>
  <symbol id="q" overflow="visible">
   <path d="m15.047-11.609c0.5625-0.86328 1.2266-1.5195 2-1.9688 0.78125-0.45703 1.6328-0.6875 2.5625-0.6875 1.6016 0 2.8203 0.49609 3.6562 1.4844 0.84375 0.99219 1.2656 2.4219 1.2656 4.2969v8.4844h-4.4844v-7.2656c0.007813-0.10156 0.015625-0.21094 0.015625-0.32812 0.007812-0.11328 0.015625-0.28125 0.015625-0.5 0-0.98828-0.14844-1.7031-0.4375-2.1406-0.29297-0.44531-0.76172-0.67188-1.4062-0.67188-0.84375 0-1.5 0.35156-1.9688 1.0469-0.46094 0.69922-0.69531 1.7031-0.70312 3.0156v6.8438h-4.4844v-7.2656c0-1.5391-0.13672-2.5312-0.40625-2.9688-0.26172-0.44531-0.73047-0.67188-1.4062-0.67188-0.85547 0-1.5156 0.35547-1.9844 1.0625-0.46094 0.69922-0.6875 1.6953-0.6875 2.9844v6.8594h-4.4844v-13.922h4.4844v2.0312c0.53906-0.78125 1.1641-1.3672 1.875-1.7656 0.70703-0.40625 1.4883-0.60938 2.3438-0.60938 0.96875 0 1.8164 0.23438 2.5469 0.70312 0.73828 0.46094 1.3008 1.1094 1.6875 1.9531z"/>
  </symbol>
  <symbol id="p" overflow="visible">
   <path d="m2.3438-18.562h5.3438l6.75 12.734v-12.734h4.5469v18.562h-5.3594l-6.75-12.734v12.734h-4.5312z"/>
  </symbol>
  <symbol id="o" overflow="visible">
   <path d="m1.9844-5.4219v-8.5h4.4844v1.3906c0 0.75-0.007812 1.6992-0.015625 2.8438-0.011719 1.1367-0.015625 1.8984-0.015625 2.2812 0 1.1172 0.023438 1.9219 0.078125 2.4219 0.0625 0.49219 0.16406 0.84375 0.3125 1.0625 0.17578 0.29297 0.41016 0.51562 0.70312 0.67188 0.30078 0.15625 0.64453 0.23438 1.0312 0.23438 0.92578 0 1.6562-0.35156 2.1875-1.0625 0.53125-0.71875 0.79688-1.707 0.79688-2.9688v-6.875h4.4531v13.922h-4.4531v-2.0156c-0.67969 0.8125-1.3906 1.4141-2.1406 1.7969s-1.5781 0.57812-2.4844 0.57812c-1.6055 0-2.8281-0.48828-3.6719-1.4688-0.84375-0.98828-1.2656-2.4258-1.2656-4.3125z"/>
  </symbol>
  <symbol id="n" overflow="visible">
   <path d="m2.3438-18.562h7.9375c2.3633 0 4.1758 0.52734 5.4375 1.5781 1.2695 1.043 1.9062 2.5312 1.9062 4.4688 0 1.9492-0.63672 3.4492-1.9062 4.5-1.2617 1.0547-3.0742 1.5781-5.4375 1.5781h-3.1562v6.4375h-4.7812zm4.7812 3.4688v5.1875h2.6562c0.92578 0 1.6406-0.22266 2.1406-0.67188 0.50781-0.45703 0.76562-1.1016 0.76562-1.9375 0-0.82031-0.25781-1.457-0.76562-1.9062-0.5-0.44531-1.2148-0.67188-2.1406-0.67188z"/>
  </symbol>
  <symbol id="m" overflow="visible">
   <path d="m2.1406-13.922h4.4531v13.672c0 1.8633-0.44922 3.2852-1.3438 4.2656-0.89844 0.98828-2.1953 1.4844-3.8906 1.4844h-2.2031v-2.9219h0.76562c0.84375 0 1.4219-0.19531 1.7344-0.57812 0.32031-0.375 0.48438-1.125 0.48438-2.25zm0-5.4219h4.4531v3.625h-4.4531z"/>
  </symbol>
  <symbol id="l" overflow="visible">
   <path d="m13.391-13.5v3.6406c-0.60547-0.41406-1.2148-0.72266-1.8281-0.92188-0.60547-0.19531-1.2344-0.29688-1.8906-0.29688-1.2422 0-2.2109 0.36719-2.9062 1.0938-0.6875 0.71875-1.0312 1.7305-1.0312 3.0312 0 1.3047 0.34375 2.3203 1.0312 3.0469 0.69531 0.71875 1.6641 1.0781 2.9062 1.0781 0.69531 0 1.3594-0.097656 1.9844-0.29688 0.625-0.20703 1.2031-0.51562 1.7344-0.92188v3.6406c-0.69922 0.25-1.4062 0.4375-2.125 0.5625-0.71094 0.13281-1.4297 0.20312-2.1562 0.20312-2.5117 0-4.4766-0.64062-5.8906-1.9219-1.418-1.2891-2.125-3.0859-2.125-5.3906 0-2.2891 0.70703-4.082 2.125-5.375 1.4141-1.2891 3.3789-1.9375 5.8906-1.9375 0.72656 0 1.4453 0.070313 2.1562 0.20312 0.71875 0.125 1.4258 0.3125 2.125 0.5625z"/>
  </symbol>
 </defs>
 <g>
  <path d="m611.57 113.52c-15.469-0.11719-25.09 8.1094-29.734 15.953-4.7656 7.8438-5.5195 15.238-5.5938 15.648-0.3125 2.8047 1.7305 5.3125 4.5273 5.6133 0.17969 0.019531 0.36719 0.03125 0.55469 0.03125 2.5664 0 4.7773-1.9453 5.0508-4.5547 0 0 0.11719-1.2227 0.72656-3.4219 2.1406-6.8555 6.9922-19.012 24.465-19.09 1.9492 0 4.0898 0.15234 6.4492 0.51563 2.7656 0.42969 5.3633-1.4883 5.793-4.2578 0.4375-2.7812-1.4805-5.3789-4.2578-5.8125-2.8398-0.4375-5.4961-0.63672-7.9805-0.625z"/>
  <path d="m558.91 139.27c0.26953 0.046875 0.54688 0.066407 0.81641 0.066407 2.4453 0 4.6133-1.7812 5.0234-4.2773 0-0.011719 0.3125-1.9922 1.4219-5.3242 3.6094-10.258 12.836-29.48 39.84-29.531 3.832 0 8.0469 0.39844 12.715 1.2891 2.7656 0.53906 5.4414-1.2773 5.9688-4.0391 0.53516-2.7617-1.2617-5.4336-4.0273-5.9648-5.2617-1.0117-10.137-1.4766-14.652-1.4766-21.75-0.085938-35.258 11.039-42.367 21.82-7.2109 10.793-8.8633 21.195-8.9531 21.598-0.45312 2.7695 1.4375 5.3867 4.2148 5.8398z"/>
  <path d="m656.54 151.29c2.6758 2.8203 7.8906 9.75 7.8086 17.965-0.03125 5.375-1.9297 11.719-8.9648 19.277-1.9219 2.0469-1.8164 5.2773 0.23828 7.2031 0.98438 0.91797 2.2344 1.375 3.4844 1.375 1.3633 0 2.7266-0.53906 3.7266-1.6133 8.4336-8.9531 11.738-18.164 11.711-26.234-0.20703-16.59-12.336-26.566-12.66-26.973-2.1289-1.8398-5.3516-1.5977-7.1797 0.53906-1.8281 2.1289-1.5781 5.3438 0.54688 7.1797-0.003906-0.007813 0.42188 0.34375 1.2891 1.2812z"/>
  <path d="m678.61 140.63c3.7891 4.4219 11.273 15.207 11.199 28.34-0.039062 9.5-3.6016 20.621-16.125 33.055-2 1.9727-2.0234 5.1992-0.039062 7.207 0.99219 1.0039 2.3086 1.5078 3.6211 1.5078 1.293 0 2.5859-0.48828 3.582-1.4688 14.098-13.855 19.203-28.039 19.152-40.309-0.16797-22.676-15.938-37.387-16.262-37.816-2.0273-1.9414-5.2617-1.875-7.2031 0.16797-1.9414 2.0273-1.8594 5.2578 0.16797 7.1953-0.003906 0.007812 0.66797 0.64062 1.9062 2.1211z"/>
  <path d="m2.6484 236.26-0.36719 0.53516c-0.28125 0.48047-2.2617 3.7852-2.2812 8.9844-0.0625 4.457 1.7109 10.219 6.793 15.352 0.25781 0.25781 0.57422 0.39062 0.86719 0.58594 8.0664 9.3906 24.164 15.809 42.727 15.809 15.199 0 28.742-4.3086 37.582-11.027 2.8945-1.9102 5.5195-4.3047 7.7891-7.5391l0.67578-1.293 19.738-56.621c3.4727 1.6719 6.7539 3.4648 9.6211 5.5195 9.5078 6.8203 30.828 73.746 35.414 91.156 23.285 1.9766 61.621-23.816 83.145-38.703-22.055 23.012-61.09 59.73-61.039 60.023-2.2578 2.9492-3.9766 6.375-4.7891 10.262h-0.011719l-94.305 167.91c-2.6328 12.715 4.707 25.379 17.051 29.387 2.6172 0.84375 5.2734 1.2539 7.8906 1.2539 9.7695 0 18.992-5.6484 23.211-14.984l105.55-99.641c14.594 8.0664 31.094 15.238 43.613 17.18 59.148 9.1211 162.78-63.441 166.46-63.766 26.051 18.363 119.25 158.59 165.93 158.59 46.695 0-63.398-186.41-64.062-190.02-4.7734-24.727-12.105-43.285-21.457-57.375-0.44922-1.0078-0.90625-2.0742-1.3242-2.9688 36.52-15.969 75.426-43.227 106.92-89.77 6.7227-9.9336 4.0898-23.398-5.8555-30.07-9.9062-6.6875-23.391-4.1016-30.07 5.8477-33.117 49.422-76.816 72.582-113.48 83.348-90.805-48.543-117.1 38.984-223.85 2.4023 9.7578-27.285 11.168-87.453-21.301-119.75 10.781-18.418 14.801-35.734-1.7109-56.684-13.871-17.598-37.445-21.699-32.387-9.9219 14.395 33.691-9.3633 49.238-10.656 49.598-1.2422 0.33984-16.594 11.277-35.098 14.664 5.5625-5.125 10.445-9.5547 14.527-13.402 9.4336-9.25 15.625-14.633 16.168-23.141 0.011719-1.6211-0.34766-3.3125-1.0352-4.8242-2.9844-6.0352-10.145-11.965-20.512-17.668-10.312-5.5117-23.703-10.012-38.312-10.012-7.4805-0.011718-15.27 1.1953-23.012 4.0742-6.4688 2.5586-10.676 6-14.184 11.785l-0.6875 1.6445-11.141 50.512c-4.457 1.7305-7.9609 4.3359-9.8008 8.2656-6.5352 13.965-8.1094 20.441-7.0938 28.328-31.328 37.824-61.848 76.152-61.859 76.172zm65.863-65.031 21.301 3.7852-14.812 29.18-30.34-3.8398c7.4414-9.1602 15.57-19.09 23.852-29.125zm-58.621 74.52c0-9.7891 16.027-17.727 35.781-17.727 15.363 0 28.422 4.8086 33.492 11.547-6.457-3.625-15.668-5.9141-25.945-5.9141-19.488 0-35.297 8.1758-35.297 18.258 0 2.1797 0.77344 4.2617 2.1289 6.2031-6.2734-3.1914-10.16-7.5508-10.16-12.367zm21.449 8.0664c0-5.4844 10.883-9.9258 24.312-9.9258 13.426 0 24.312 4.4414 24.312 9.9258 0 5.4805-10.883 9.9258-24.312 9.9258-13.43 0-24.312-4.4453-24.312-9.9258zm19.047-35.273c-8.5273 0-16.523 1.3633-23.477 3.7344 4.1211-5.1133 8.832-10.949 13.965-17.281l37.035 4.6953 19.547-38.504-25.207-4.4727c3.4141-4.1172 6.8242-8.2305 10.219-12.285l37.562 4.6211-26.461 75.891c-7.8945-9.7109-24.238-16.398-43.184-16.398zm131.67-78.773c8.1758 4.0859 11.5 14.023 7.4102 22.188-4.0781 8.1992-14.027 11.512-22.195 7.4258-8.1836-4.0781-11.512-14.016-7.4219-22.203 4.082-8.1758 14.031-11.5 22.207-7.4102zm-79.785-63.633c2.9141-4.2266 3.6641-4.7227 8.9023-7.1172 6.2969-2.3438 12.836-3.3555 19.238-3.3672 12.473 0 24.402 3.9336 33.516 8.8125 9.0703 4.6875 15.457 11.113 16.023 12.887 0.10156 0.25 0.11719 0.37109 0.12891 0.63281 0.53516 1.0039-3.3633 7.0508-12.961 15.734-5.9492 5.6094-13.797 12.617-23.297 21.531-11.273-1.2383-34.152-5.9492-51.469-4.1875z"/>
  <path d="m106.82 110.02 14.98-36.609 4.7031 1.9258-14.98 36.609z"/>
  <path d="m122.19 110.2 17.836-31.199 4.4258 2.5312-17.836 31.199z"/>
  <path d="m135.37 112.81 25.465-24.82 3.5547 3.6484-25.465 24.82z"/>
  <use y="604.25" xlink:href="#u"/>
  <use x="18.691406" y="604.25" xlink:href="#e"/>
  <use x="31.25" y="604.25" xlink:href="#b"/>
  <use x="48.519531" y="604.25" xlink:href="#d"/>
  <use x="65.707031" y="604.25" xlink:href="#c"/>
  <use x="77.878906" y="604.25" xlink:href="#b"/>
  <use x="95.152344" y="604.25" xlink:href="#k"/>
  <use x="122.246094" y="604.25" xlink:href="#j"/>
  <use x="140.476562" y="604.25" xlink:href="#g"/>
  <use x="165.945312" y="604.25" xlink:href="#i"/>
  <use x="186.847656" y="604.25" xlink:href="#d"/>
  <use x="204.03125" y="604.25" xlink:href="#f"/>
  <use x="231.027344" y="604.25" xlink:href="#t"/>
  <use x="250.761719" y="604.25" xlink:href="#h"/>
  <use x="268.894531" y="604.25" xlink:href="#a"/>
  <use x="286.390625" y="604.25" xlink:href="#a"/>
  <use x="303.886719" y="604.25" xlink:href="#f"/>
  <use x="330.882812" y="604.25" xlink:href="#s"/>
  <use x="347.109375" y="604.25" xlink:href="#d"/>
  <use x="364.292969" y="604.25" xlink:href="#g"/>
  <use y="629.714844" xlink:href="#r"/>
  <use x="11.078125" y="629.714844" xlink:href="#e"/>
  <use x="23.640625" y="629.714844" xlink:href="#a"/>
  <use x="41.136719" y="629.714844" xlink:href="#q"/>
  <use x="76.535156" y="629.714844" xlink:href="#c"/>
  <use x="88.710937" y="629.714844" xlink:href="#h"/>
  <use x="106.839844" y="629.714844" xlink:href="#b"/>
  <use x="132.980469" y="629.714844" xlink:href="#p"/>
  <use x="154.292969" y="629.714844" xlink:href="#a"/>
  <use x="171.789062" y="629.714844" xlink:href="#o"/>
  <use x="189.917969" y="629.714844" xlink:href="#f"/>
  <use x="216.914062" y="629.714844" xlink:href="#n"/>
  <use x="235.578125" y="629.714844" xlink:href="#e"/>
  <use x="248.140625" y="629.714844" xlink:href="#a"/>
  <use x="265.636719" y="629.714844" xlink:href="#m"/>
  <use x="274.363281" y="629.714844" xlink:href="#b"/>
  <use x="291.636719" y="629.714844" xlink:href="#l"/>
  <use x="306.734375" y="629.714844" xlink:href="#c"/>
 </g>
</svg>
